<svg width="800" height="600" xmlns="http://www.w3.org/2000/svg">
 <!-- Created with Method Draw - http://github.com/duopixel/Method-Draw/ -->

 <g stroke="null">
  <title>background</title>
  <rect x="-1" y="-1" width="802" height="602" id="canvas_background" fill="none" stroke="null"/>
  <g id="canvasGrid" display="none" stroke="null">
   <rect id="svg_1" width="100%" height="100%" x="0" y="0" stroke-width="0" fill="url(#gridpattern)"/>
  </g>
 </g>
 <g stroke="null">
  <title>Layer 1</title>
  <!-- Created with Method Draw - http://github.com/duopixel/Method-Draw/ -->
  <g transform="matrix(0.8475660222126236,0,0,0.9052259308046019,-7664.334348418934,-5929.348744582087) " id="svg_41" stroke="null">
   <title>background</title>
  </g>
  <g transform="matrix(0.8475660222126236,0,0,0.9052259308046019,-7664.334348418934,-5929.348744582087) " id="svg_34" stroke="null">
   <title>Layer 1</title>
   <g id="svg_39" stroke="null">
    <path fill="#000000" d="m9573.17927,7002.7446l-10.65472,-6.15272c1.07548,-5.80258 1.07548,-11.75523 0,-17.55781l10.65472,-6.15272c1.22556,-0.70031 1.77579,-2.15094 1.37561,-3.50154c-2.77622,-8.90396 -7.50332,-16.95753 -13.68105,-23.66051c-0.95044,-1.02544 -2.50111,-1.27555 -3.70165,-0.57524l-10.65472,6.15272c-4.47699,-3.85171 -9.62927,-6.82802 -15.20675,-8.77889l0,-12.28043c0,-1.40064 -0.97542,-2.62617 -2.35103,-2.9263c-9.17907,-2.05093 -18.58325,-1.95087 -27.31212,0c-1.37561,0.30013 -2.35103,1.52566 -2.35103,2.9263l0,12.30544c-5.55247,1.97588 -10.70476,4.9522 -15.20675,8.77889l-10.62971,-6.15272c-1.22553,-0.70031 -2.75121,-0.47521 -3.70163,0.57524c-6.17775,6.67797 -10.90485,14.73154 -13.68107,23.66051c-0.42519,1.3506 0.15005,2.80123 1.37561,3.50154l10.65472,6.15274c-1.07546,5.80255 -1.07546,11.75521 0,17.55778l-10.65472,6.15272c-1.22556,0.70031 -1.77579,2.15096 -1.37561,3.50156c2.77622,8.90393 7.50332,16.95751 13.68107,23.66049c0.95042,1.02544 2.50111,1.27555 3.70163,0.57524l10.65472,-6.15272c4.47699,3.85171 9.62927,6.82802 15.20675,8.77889l0,12.30546c0,1.40062 0.97542,2.62615 2.35103,2.9263c9.17907,2.05091 18.58325,1.95085 27.31212,0c1.37561,-0.30015 2.35103,-1.52568 2.35103,-2.9263l0,-12.30546c5.55247,-1.97588 10.70476,-4.9522 15.20675,-8.77889l10.65472,6.15272c1.22556,0.70031 2.75124,0.47521 3.70165,-0.57524c6.17773,-6.67797 10.90482,-14.73154 13.68107,-23.66049c0.37515,-1.37563 -0.17508,-2.82626 -1.40064,-3.52657l0,0.00001zm-57.87565,5.07724c-11.02989,0 -20.00887,-8.97896 -20.00887,-20.00887s8.97898,-20.00885 20.00887,-20.00885s20.00887,8.97896 20.00887,20.00885s-8.97898,20.00887 -20.00887,20.00887z" id="svg_40" stroke="null"/>
   </g>
   <g id="svg_37" stroke="null">
    <path fill="#000000" d="m9494.69871,6923.61853l-9.66782,-5.58282c0.97586,-5.26511 0.97586,-10.6664 0,-15.93151l9.66782,-5.58282c1.11203,-0.63544 1.6113,-1.95171 1.24819,-3.17721c-2.51908,-8.07922 -6.80832,-15.38683 -12.41384,-21.46894c-0.8624,-0.93046 -2.26944,-1.15741 -3.35879,-0.52196l-9.66781,5.58282c-4.06231,-3.49494 -8.73736,-6.19557 -13.79822,-7.96575l0,-11.14295c0,-1.2709 -0.88508,-2.38292 -2.13327,-2.65524c-8.32886,-1.86097 -16.86197,-1.77018 -24.78233,0c-1.24819,0.27232 -2.13326,1.38434 -2.13326,2.65524l0,11.16565c-5.03817,1.79286 -9.71323,4.49349 -13.79822,7.96574l-9.64513,-5.58282c-1.11202,-0.63544 -2.49638,-0.43119 -3.35877,0.52196c-5.60553,6.05942 -9.89478,13.36703 -12.41385,21.46894c-0.38581,1.2255 0.13615,2.54177 1.24819,3.17721l9.66782,5.58284c-0.97585,5.2651 -0.97585,10.66638 0,15.93149l-9.66782,5.58282c-1.11204,0.63544 -1.61131,1.95173 -1.24819,3.17723c2.51907,8.07921 6.80832,15.38682 12.41385,21.46893c0.86239,0.93046 2.26944,1.1574 3.35877,0.52196l9.66782,-5.58283c4.0623,3.49494 8.73736,6.19558 13.79822,7.96575l0,11.16566c0,1.27089 0.88507,2.3829 2.13326,2.65525c8.32886,1.86094 16.86197,1.77015 24.78233,0c1.24819,-0.27235 2.13327,-1.38436 2.13327,-2.65525l0,-11.16566c5.03817,-1.79287 9.71322,-4.4935 13.79822,-7.96575l9.66782,5.58283c1.11204,0.63544 2.4964,0.43119 3.35878,-0.52196c5.60552,-6.05942 9.89476,-13.36703 12.41386,-21.46893c0.3404,-1.24821 -0.15887,-2.56448 -1.2709,-3.19992zm-52.5149,4.60696c-10.00825,0 -18.15555,-8.14728 -18.15555,-18.15554s8.1473,-18.15553 18.15555,-18.15553s18.15554,8.14728 18.15554,18.15553s-8.1473,18.15554 -18.15554,18.15554z" id="svg_38" stroke="null"/>
   </g>
   <g id="svg_35" stroke="null">
    <path fill="#000000" d="m9639.69871,6923.61853l-9.66782,-5.58282c0.97586,-5.26511 0.97586,-10.6664 0,-15.93151l9.66782,-5.58282c1.11203,-0.63544 1.6113,-1.95171 1.24819,-3.17721c-2.51908,-8.07922 -6.80832,-15.38683 -12.41384,-21.46894c-0.8624,-0.93046 -2.26944,-1.15741 -3.35879,-0.52196l-9.66781,5.58282c-4.06231,-3.49494 -8.73736,-6.19557 -13.79822,-7.96575l0,-11.14295c0,-1.2709 -0.88508,-2.38292 -2.13327,-2.65524c-8.32886,-1.86097 -16.86197,-1.77018 -24.78233,0c-1.24819,0.27232 -2.13326,1.38434 -2.13326,2.65524l0,11.16565c-5.03817,1.79286 -9.71323,4.49349 -13.79822,7.96574l-9.64513,-5.58282c-1.11202,-0.63544 -2.49638,-0.43119 -3.35877,0.52196c-5.60553,6.05942 -9.89478,13.36703 -12.41385,21.46894c-0.38581,1.2255 0.13615,2.54177 1.24819,3.17721l9.66782,5.58284c-0.97585,5.2651 -0.97585,10.66638 0,15.93149l-9.66782,5.58282c-1.11204,0.63544 -1.61131,1.95173 -1.24819,3.17723c2.51907,8.07921 6.80832,15.38682 12.41385,21.46893c0.86239,0.93046 2.26944,1.1574 3.35877,0.52196l9.66782,-5.58283c4.0623,3.49494 8.73736,6.19558 13.79822,7.96575l0,11.16566c0,1.27089 0.88507,2.3829 2.13326,2.65525c8.32886,1.86094 16.86197,1.77015 24.78233,0c1.24819,-0.27235 2.13327,-1.38436 2.13327,-2.65525l0,-11.16566c5.03817,-1.79287 9.71322,-4.4935 13.79822,-7.96575l9.66782,5.58283c1.11204,0.63544 2.4964,0.43119 3.35878,-0.52196c5.60552,-6.05942 9.89476,-13.36703 12.41386,-21.46893c0.3404,-1.24821 -0.15887,-2.56448 -1.2709,-3.19992zm-52.5149,4.60696c-10.00825,0 -18.15555,-8.14728 -18.15555,-18.15554s8.1473,-18.15553 18.15555,-18.15553s18.15554,8.14728 18.15554,18.15553s-8.1473,18.15554 -18.15554,18.15554z" id="svg_36" stroke="null"/>
   </g>
  </g>
  <g stroke-opacity="0" id="svg_25" stroke="null" transform="matrix(1.0886845171973814,0,0,1.1627477147559964,-6162.381182133053,-4824.49557262378) ">
   <g transform="matrix(0.6800193946300052,0,0,0.7389338691753151,-1109.780748479721,-929.8173217100107) " id="svg_26" stroke="null">
    <title>Layer 1</title>
    <g id="svg_30" stroke="null"/>
    <g id="svg_29" stroke="null"/>
    <g id="svg_28" stroke="null"/>
    <path fill="currentColor" d="m10611.9513,7015.39734c-1.03041,-4.15383 -6.22845,-5.56144 -9.25527,-2.53462l-34.20589,34.2059l-31.22507,-5.20265l-5.20264,-31.22507l34.20589,-34.20589c3.04522,-3.04523 1.57781,-8.23407 -2.60363,-9.27368c-21.79498,-5.40044 -45.79339,0.4186 -62.82733,17.44795c-18.23456,18.23456 -23.2532,44.66638 -15.66313,67.71257l-98.16024,98.16024c-11.4955,11.4955 -11.4955,30.13486 0,41.63036c11.4955,11.49549 30.13485,11.49549 41.63035,0l98.07744,-98.07744c23.05539,7.68667 49.43662,2.61283 67.79078,-15.74133c17.05234,-17.05235 22.86219,-41.08755 17.43874,-62.89634zm-204.11754,166.93542c-6.09504,0 -11.04009,-4.94504 -11.04009,-11.04009c0,-6.09965 4.94505,-11.04009 11.04009,-11.04009s11.0401,4.94044 11.0401,11.04009c0,6.09505 -4.94504,11.04009 -11.0401,11.04009z" id="svg_27" stroke-width="3" transform="rotate(-45 10496.153320312496,7082.972656249999) " stroke="#000000"/>
   </g>
  </g>
  <rect id="svg_24" height="1" width="0" y="5289.77563" x="8439.63674" fill-opacity="null" stroke-width="null" fill="#000000" stroke="#A98E49" transform="matrix(1.0886845171973814,0,0,1.1627477147559964,-6162.381182133053,-4824.49557262378) "/>
  <g id="svg_97" transform="rotate(90 400,324.91757202148443) " stroke="null">
   <g id="svg_79" transform="matrix(0.06362045326845656,0,0,0.06295306746595629,202.1290383603437,188.8051656477942) " stroke="null">
    <g id="svg_80" stroke="null">
     <path d="m3364.00479,2158.76427l-119.639,-211.138c-2.969,-5.24 -8.527,-8.479 -14.55,-8.479l-239.276,0c-6.023,0 -11.58,3.239 -14.549,8.479l-119.639,211.138c-2.959,5.221 -2.893,11.627 0.172,16.786l119.639,201.371c3.014,5.073 8.478,8.182 14.378,8.182l239.277,0c5.9,0 11.363,-3.109 14.378,-8.182l119.639,-201.371c3.063,-5.16 3.128,-11.566 0.17,-16.786zm-253.827,125.305c-64.549,0 -117.063,-52.515 -117.063,-117.064s52.514,-117.063 117.063,-117.063s117.064,52.515 117.064,117.063s-52.514,117.064 -117.064,117.064z" id="svg_81" stroke="null"/>
    </g>
   </g>
   <g id="svg_82" transform="matrix(0.0820166541112827,0,0,0.05924474597781374,127.77391325303194,193.22362314556372) " stroke="null"/>
   <g id="svg_83" transform="matrix(0.0820166541112827,0,0,0.05924474597781374,127.77391325303194,193.22362314556372) " stroke="null"/>
   <g id="svg_84" transform="matrix(0.0820166541112827,0,0,0.05924474597781374,127.77391325303194,193.22362314556372) " stroke="null"/>
   <g id="svg_85" transform="matrix(0.0820166541112827,0,0,0.05924474597781374,127.77391325303194,193.22362314556372) " stroke="null"/>
   <g id="svg_86" transform="matrix(0.0820166541112827,0,0,0.05924474597781374,127.77391325303194,193.22362314556372) " stroke="null"/>
   <g id="svg_87" transform="matrix(0.0820166541112827,0,0,0.05924474597781374,127.77391325303194,193.22362314556372) " stroke="null"/>
   <g id="svg_88" transform="matrix(0.0820166541112827,0,0,0.05924474597781374,127.77391325303194,193.22362314556372) " stroke="null"/>
   <g id="svg_89" transform="matrix(0.0820166541112827,0,0,0.05924474597781374,127.77391325303194,193.22362314556372) " stroke="null"/>
   <g id="svg_90" transform="matrix(0.0820166541112827,0,0,0.05924474597781374,127.77391325303194,193.22362314556372) " stroke="null"/>
   <g id="svg_91" transform="matrix(0.0820166541112827,0,0,0.05924474597781374,127.77391325303194,193.22362314556372) " stroke="null"/>
   <g id="svg_92" transform="matrix(0.0820166541112827,0,0,0.05924474597781374,127.77391325303194,193.22362314556372) " stroke="null"/>
   <g id="svg_93" transform="matrix(0.0820166541112827,0,0,0.05924474597781374,127.77391325303194,193.22362314556372) " stroke="null"/>
   <g id="svg_94" transform="matrix(0.0820166541112827,0,0,0.05924474597781374,127.77391325303194,193.22362314556372) " stroke="null"/>
   <g id="svg_95" transform="matrix(0.0820166541112827,0,0,0.05924474597781374,127.77391325303194,193.22362314556372) " stroke="null"/>
   <g id="svg_96" transform="matrix(0.0820166541112827,0,0,0.05924474597781374,127.77391325303194,193.22362314556372) " stroke="null"/>
  </g>
  <ellipse ry="17.5" rx="13" id="svg_2" cy="285.95313" cx="399.5" stroke-width="1.5" fill="#000"/>
 </g>
</svg>