<?xml version="1.0" encoding="utf-8"?>
<svg viewBox="194.712 205.282 252.758 433.476" xmlns="http://www.w3.org/2000/svg">
  <g transform="matrix(1, 0, 0, 1, 65.712151, 195.258041)">
    <title>Layer 1</title>
    <g stroke="null" id="svg_19">
      <path id="svg_18" d="m313.86207,396.37869l-10.65472,-6.15272c1.07548,-5.80258 1.07548,-11.75523 0,-17.55781l10.65472,-6.15272c1.22556,-0.70031 1.77579,-2.15094 1.37561,-3.50154c-2.77622,-8.90396 -7.50332,-16.95753 -13.68105,-23.66051c-0.95044,-1.02544 -2.50111,-1.27555 -3.70165,-0.57524l-10.65472,6.15272c-4.47699,-3.85171 -9.62927,-6.82802 -15.20675,-8.77889l0,-12.28043c0,-1.40064 -0.97542,-2.62617 -2.35103,-2.9263c-9.17907,-2.05093 -18.58325,-1.95087 -27.31212,0c-1.37561,0.30013 -2.35103,1.52566 -2.35103,2.9263l0,12.30544c-5.55247,1.97588 -10.70476,4.9522 -15.20675,8.77889l-10.62971,-6.15272c-1.22553,-0.70031 -2.75121,-0.47521 -3.70163,0.57524c-6.17775,6.67797 -10.90485,14.73154 -13.68107,23.66051c-0.42519,1.3506 0.15005,2.80123 1.37561,3.50154l10.65472,6.15274c-1.07546,5.80255 -1.07546,11.75521 0,17.55778l-10.65472,6.15272c-1.22556,0.70031 -1.77579,2.15096 -1.37561,3.50156c2.77622,8.90393 7.50332,16.95751 13.68107,23.66049c0.95042,1.02544 2.50111,1.27555 3.70163,0.57524l10.65472,-6.15272c4.47699,3.85171 9.62927,6.82802 15.20675,8.77889l0,12.30546c0,1.40062 0.97542,2.62615 2.35103,2.9263c9.17907,2.05091 18.58325,1.95085 27.31212,0c1.37561,-0.30015 2.35103,-1.52568 2.35103,-2.9263l0,-12.30546c5.55247,-1.97588 10.70476,-4.9522 15.20675,-8.77889l10.65472,6.15272c1.22556,0.70031 2.75124,0.47521 3.70165,-0.57524c6.17773,-6.67797 10.90482,-14.73154 13.68107,-23.66049c0.37515,-1.37563 -0.17508,-2.82626 -1.40064,-3.52657zm-57.87565,5.07724c-11.02989,0 -20.00887,-8.97896 -20.00887,-20.00887s8.97898,-20.00885 20.00887,-20.00885s20.00887,8.97896 20.00887,20.00885s-8.97898,20.00887 -20.00887,20.00887z" fill="#000000" style=""/>
    </g>
    <g stroke="null" id="svg_21">
      <path id="svg_20" d="m235.38151,317.25262l-9.66782,-5.58282c0.97586,-5.26511 0.97586,-10.6664 0,-15.93151l9.66782,-5.58282c1.11203,-0.63544 1.6113,-1.95171 1.24819,-3.17721c-2.51908,-8.07922 -6.80832,-15.38683 -12.41384,-21.46894c-0.8624,-0.93046 -2.26944,-1.15741 -3.35879,-0.52196l-9.66781,5.58282c-4.06231,-3.49494 -8.73736,-6.19557 -13.79822,-7.96575l0,-11.14295c0,-1.2709 -0.88508,-2.38292 -2.13327,-2.65524c-8.32886,-1.86097 -16.86197,-1.77018 -24.78233,0c-1.24819,0.27232 -2.13326,1.38434 -2.13326,2.65524l0,11.16565c-5.03817,1.79286 -9.71323,4.49349 -13.79822,7.96574l-9.64513,-5.58282c-1.11202,-0.63544 -2.49638,-0.43119 -3.35877,0.52196c-5.60553,6.05942 -9.89478,13.36703 -12.41385,21.46894c-0.38581,1.2255 0.13615,2.54177 1.24819,3.17721l9.66782,5.58284c-0.97585,5.2651 -0.97585,10.66638 0,15.93149l-9.66782,5.58282c-1.11204,0.63544 -1.61131,1.95173 -1.24819,3.17723c2.51907,8.07921 6.80832,15.38682 12.41385,21.46893c0.86239,0.93046 2.26944,1.1574 3.35877,0.52196l9.66782,-5.58283c4.0623,3.49494 8.73736,6.19558 13.79822,7.96575l0,11.16566c0,1.27089 0.88507,2.3829 2.13326,2.65525c8.32886,1.86094 16.86197,1.77015 24.78233,0c1.24819,-0.27235 2.13327,-1.38436 2.13327,-2.65525l0,-11.16566c5.03817,-1.79287 9.71322,-4.4935 13.79822,-7.96575l9.66782,5.58283c1.11204,0.63544 2.4964,0.43119 3.35878,-0.52196c5.60552,-6.05942 9.89476,-13.36703 12.41386,-21.46893c0.3404,-1.24821 -0.15887,-2.56448 -1.2709,-3.19992zm-52.5149,4.60696c-10.00825,0 -18.15555,-8.14728 -18.15555,-18.15554s8.1473,-18.15553 18.15555,-18.15553s18.15554,8.14728 18.15554,18.15553s-8.1473,18.15554 -18.15554,18.15554z" fill="#000000" style=""/>
    </g>
    <g stroke="null" id="svg_27">
      <path id="svg_26" d="m380.38151,317.25262l-9.66782,-5.58282c0.97586,-5.26511 0.97586,-10.6664 0,-15.93151l9.66782,-5.58282c1.11203,-0.63544 1.6113,-1.95171 1.24819,-3.17721c-2.51908,-8.07922 -6.80832,-15.38683 -12.41384,-21.46894c-0.8624,-0.93046 -2.26944,-1.15741 -3.35879,-0.52196l-9.66781,5.58282c-4.06231,-3.49494 -8.73736,-6.19557 -13.79822,-7.96575l0,-11.14295c0,-1.2709 -0.88508,-2.38292 -2.13327,-2.65524c-8.32886,-1.86097 -16.86197,-1.77018 -24.78233,0c-1.24819,0.27232 -2.13326,1.38434 -2.13326,2.65524l0,11.16565c-5.03817,1.79286 -9.71323,4.49349 -13.79822,7.96574l-9.64513,-5.58282c-1.11202,-0.63544 -2.49638,-0.43119 -3.35877,0.52196c-5.60553,6.05942 -9.89478,13.36703 -12.41385,21.46894c-0.38581,1.2255 0.13615,2.54177 1.24819,3.17721l9.66782,5.58284c-0.97585,5.2651 -0.97585,10.66638 0,15.93149l-9.66782,5.58282c-1.11204,0.63544 -1.61131,1.95173 -1.24819,3.17723c2.51907,8.07921 6.80832,15.38682 12.41385,21.46893c0.86239,0.93046 2.26944,1.1574 3.35877,0.52196l9.66782,-5.58283c4.0623,3.49494 8.73736,6.19558 13.79822,7.96575l0,11.16566c0,1.27089 0.88507,2.3829 2.13326,2.65525c8.32886,1.86094 16.86197,1.77015 24.78233,0c1.24819,-0.27235 2.13327,-1.38436 2.13327,-2.65525l0,-11.16566c5.03817,-1.79287 9.71322,-4.4935 13.79822,-7.96575l9.66782,5.58283c1.11204,0.63544 2.4964,0.43119 3.35878,-0.52196c5.60552,-6.05942 9.89476,-13.36703 12.41386,-21.46893c0.3404,-1.24821 -0.15887,-2.56448 -1.2709,-3.19992zm-52.5149,4.60696c-10.00825,0 -18.15555,-8.14728 -18.15555,-18.15554s8.1473,-18.15553 18.15555,-18.15553s18.15554,8.14728 18.15554,18.15553s-8.1473,18.15554 -18.15554,18.15554z" fill="#000000" style=""/>
    </g>
    <path id="svg_1" d="M 318.764 64.394 C 318.56 89.019 304.09 110.24 283.381 120.721 L 282.286 252.312 C 282.158 267.736 269.55 280.345 254.127 280.472 C 238.703 280.601 226.303 268.2 226.431 252.777 L 227.524 121.074 C 207.059 110.876 192.869 89.896 193.073 65.432 C 193.266 42.58 205.627 22.476 223.963 11.325 C 227.483 9.188 231.928 11.648 231.894 15.733 L 231.513 61.627 L 255.805 78.882 L 280.388 61.222 L 280.77 15.328 C 280.803 11.267 285.256 8.686 288.716 10.753 C 306.894 21.593 318.953 41.513 318.764 64.394 Z" style="paint-order: fill; stroke-width: 0px;"/>
  </g>
  <path d="M 310.733 477.213 L 331.194 477.213 L 341.424 494.933 L 331.194 512.653 L 310.733 512.653 L 300.502 494.933 Z M 320.963 484.339 C 315.112 484.339 310.369 489.082 310.369 494.933 C 310.369 500.785 315.112 505.527 320.963 505.527 C 326.814 505.527 331.558 500.785 331.558 494.933 C 331.558 489.082 326.814 484.339 320.963 484.339 Z" style=""/>
</svg>